<?xml version="1.0" encoding="UTF-8" standalone="no"?>
<!-- Created with Inkscape (http://www.inkscape.org/) -->
<svg
   xmlns:dc="http://purl.org/dc/elements/1.1/"
   xmlns:cc="http://creativecommons.org/ns#"
   xmlns:rdf="http://www.w3.org/1999/02/22-rdf-syntax-ns#"
   xmlns:svg="http://www.w3.org/2000/svg"
   xmlns="http://www.w3.org/2000/svg"
   xmlns:sodipodi="http://sodipodi.sourceforge.net/DTD/sodipodi-0.dtd"
   xmlns:inkscape="http://www.inkscape.org/namespaces/inkscape"
   width="744.09448819"
   height="1052.3622047"
   id="svg2"
   sodipodi:version="0.32"
   inkscape:version="0.46"
   sodipodi:docname="borderframe.svg"
   inkscape:output_extension="org.inkscape.output.svg.inkscape">
  <defs
     id="defs4">
    <inkscape:perspective
       sodipodi:type="inkscape:persp3d"
       inkscape:vp_x="0 : 526.18109 : 1"
       inkscape:vp_y="0 : 1000 : 0"
       inkscape:vp_z="744.09448 : 526.18109 : 1"
       inkscape:persp3d-origin="372.04724 : 350.78739 : 1"
       id="perspective10" />
  </defs>
  <sodipodi:namedview
     id="base"
     pagecolor="#ffffff"
     bordercolor="#666666"
     borderopacity="1.0"
     gridtolerance="10000"
     guidetolerance="10"
     objecttolerance="10"
     inkscape:pageopacity="0.0"
     inkscape:pageshadow="2"
     inkscape:zoom="1.4"
     inkscape:cx="219.40254"
     inkscape:cy="802.84271"
     inkscape:document-units="px"
     inkscape:current-layer="layer1"
     showgrid="true"
     inkscape:window-width="1226"
     inkscape:window-height="668"
     inkscape:window-x="220"
     inkscape:window-y="284">
    <inkscape:grid
       type="xygrid"
       id="grid2383"
       visible="true"
       enabled="true"
       spacingx="1px"
       spacingy="1px" />
  </sodipodi:namedview>
  <metadata
     id="metadata7">
    <rdf:RDF>
      <cc:Work
         rdf:about="">
        <dc:format>image/svg+xml</dc:format>
        <dc:type
           rdf:resource="http://purl.org/dc/dcmitype/StillImage" />
      </cc:Work>
    </rdf:RDF>
  </metadata>
  <g
     inkscape:label="Layer 1"
     inkscape:groupmode="layer"
     id="layer1">
    <path
       style="fill:none;fill-opacity:1;fill-rule:evenodd;stroke:#000000;stroke-width:4;stroke-linecap:round;stroke-linejoin:round;stroke-miterlimit:4;stroke-dashoffset:0;stroke-opacity:1;stroke-dasharray:none"
       d="M 120,102.36218 C 120,77.362186 145,77.362186 145,102.36218 L 195,102.36218 L 220,77.362186 L 245,102.36218 L 295,102.36218 C 295,77.362186 320,77.362186 320,102.36218 C 345,102.36218 345,127.36218 320,127.36218 L 320,177.36218 L 345,202.36218 L 320,227.36218 L 320,277.36218 C 345,277.36218 345,302.36218 320,302.36218 C 320,327.36218 295,327.36218 295,302.36218 L 245,302.36218 L 220,327.36218 L 195,302.36218 L 145,302.36218 C 145,327.36218 120,327.36218 120,302.36218 C 95,302.36218 95,277.36218 120,277.36218 L 120,227.36218 L 95,202.36218 L 120,177.36218 L 120,127.36218 C 95,127.36218 95,102.36218 120,102.36218 z"
       id="rect2387"
       sodipodi:nodetypes="ccccccccccccccccccccccccc" />
    <path
       sodipodi:nodetypes="ccccccccccccccccccccccccc"
       id="path3160"
       d="M 130,112.3622 C 130,89.862207 130,92.362183 140,112.36218 L 197.5,112.3622 L 220,89.862207 L 242.5,112.3622 L 300,112.36218 C 310,92.362183 310,89.862207 310,112.3622 C 332.5,112.3622 330,112.36218 310,122.36218 L 310,179.8622 L 332.5,202.3622 L 310,224.8622 L 310,282.36218 C 330,292.36218 332.5,292.3622 310,292.3622 C 310,314.8622 310,312.36218 300,292.36218 L 242.5,292.3622 L 220,314.8622 L 197.5,292.3622 L 140,292.36218 C 130,312.36218 130,314.8622 130,292.3622 C 107.5,292.3622 110,292.36218 130,282.36218 L 130,224.8622 L 107.5,202.3622 L 130,179.8622 L 130,122.36218 C 110,112.36218 107.5,112.3622 130,112.3622 z"
       style="fill:none;fill-opacity:1;fill-rule:evenodd;stroke:#000000;stroke-width:8;stroke-linecap:round;stroke-linejoin:round;stroke-miterlimit:4;stroke-dashoffset:0;stroke-opacity:1;stroke-dasharray:none" />
  </g>
</svg>
