<?xml version="1.0" encoding="UTF-8" standalone="no"?>
<svg
   xmlns:dc="http://purl.org/dc/elements/1.1/"
   xmlns:cc="http://creativecommons.org/ns#"
   xmlns:rdf="http://www.w3.org/1999/02/22-rdf-syntax-ns#"
   xmlns:svg="http://www.w3.org/2000/svg"
   xmlns="http://www.w3.org/2000/svg"
   xmlns:sodipodi="http://sodipodi.sourceforge.net/DTD/sodipodi-0.dtd"
   xmlns:inkscape="http://www.inkscape.org/namespaces/inkscape"
   clip-rule="evenodd"
   stroke-miterlimit="10"
   viewBox="0 0 174.35 209.78"
   id="svg2"
   sodipodi:version="0.32"
   inkscape:version="0.46"
   width="744.09186"
   height="895.29858"
   sodipodi:docname="qt-logo.svg"
   inkscape:output_extension="org.inkscape.output.svg.inkscape"
   version="1.0"
   style="stroke-miterlimit:10">
  <metadata
     id="metadata29">
    <rdf:RDF>
      <cc:Work
         rdf:about="">
        <dc:format>image/svg+xml</dc:format>
        <dc:type
           rdf:resource="http://purl.org/dc/dcmitype/StillImage" />
      </cc:Work>
    </rdf:RDF>
  </metadata>
  <sodipodi:namedview
     inkscape:window-height="668"
     inkscape:window-width="722"
     inkscape:pageshadow="2"
     inkscape:pageopacity="0.0"
     guidetolerance="10.0"
     gridtolerance="10.0"
     objecttolerance="10.0"
     borderopacity="1.0"
     bordercolor="#666666"
     pagecolor="#ffffff"
     id="base"
     showgrid="false"
     inkscape:zoom="0.12195802"
     inkscape:cx="525.6108"
     inkscape:cy="-287.87189"
     inkscape:window-x="476"
     inkscape:window-y="228"
     inkscape:current-layer="svg2" />
  <desc
     id="desc4">SVG generated by Lineform</desc>
  <defs
     id="defs6">
    <inkscape:perspective
       sodipodi:type="inkscape:persp3d"
       inkscape:vp_x="0 : 526.18109 : 1"
       inkscape:vp_y="0 : 1000 : 0"
       inkscape:vp_z="744.09448 : 526.18109 : 1"
       inkscape:persp3d-origin="372.04724 : 350.78739 : 1"
       id="perspective31" />
  </defs>
  <g
     id="g8"
     transform="translate(-1.5304326e-4,-3.775985e-4)">
    <path
       d="M 43.08,0.36 C 40.94,0 38.84,-0.08 36.81,0.08 L 36.8,0.08 C 36.8,0.08 22.92,1.02 22.29,1.07 C 9.62,2.08 0,12.5 0,26.89 L 0,196.55 L 14.19,209.78 L 156.79,185.81 C 166.6,184.11 174.35,172.54 174.35,160.04 L 174.35,21.88 L 43.08,0.36"
       id="path10"
       style="fill:#0c481e" />
    <path
       d="M 174.35,160.04 C 174.35,172.54 166.6,184.11 156.79,185.82 L 14.19,209.78 L 14.19,25.99 C 14.19,9.27 27.53,-2.21 43.08,0.36 L 174.35,21.88 L 174.35,160.04"
       id="path12"
       style="fill:#66b036" />
    <path
       d="M 130.42,45.91 L 141.94,47.15 L 141.94,67.36 L 154.9,68.28 L 154.9,80.96 L 141.94,80.36 L 141.94,126.69 C 141.94,130.72 142.38,133.31 143.28,134.48 C 144.08,135.55 145.32,136.07 146.99,136.07 C 147.15,136.07 147.32,136.07 147.48,136.06 C 150.03,135.91 152.81,135.13 155.83,133.75 L 155.83,145.4 C 150.69,147.65 145.65,149 140.7,149.42 C 139.99,149.47 139.29,149.5 138.62,149.5 C 134.14,149.5 130.72,148.2 128.38,145.57 C 125.65,142.52 124.29,137.62 124.29,130.9 L 124.29,79.54 L 118.06,79.26 L 118.06,65.67 L 125.65,66.22 L 130.42,45.91"
       id="path14"
       style="fill:#ffffff" />
    <path
       d="M 154.9,80.96 L 141.94,80.36 L 141.94,80.64 L 148.88,80.96 L 154.9,80.96"
       id="path16"
       style="fill:#0c481e" />
    <path
       d="M 144.64,135.6 C 145.3,135.92 146.07,136.07 146.99,136.07 C 147.15,136.07 147.32,136.07 147.48,136.06 C 150.03,135.91 152.81,135.13 155.83,133.75 L 149.81,133.75 C 147.99,134.58 146.28,135.21 144.64,135.6"
       id="path18"
       style="fill:#0c481e" />
    <path
       d="M 128.38,145.57 C 125.65,142.52 124.29,137.62 124.29,130.9 L 124.29,79.54 L 118.06,79.26 L 118.06,65.67 L 112.05,65.67 L 112.05,68.71 C 112.92,71.98 113.6,75.53 114.11,79.35 L 118.28,79.54 L 118.28,130.9 C 118.28,137.62 119.64,142.52 122.37,145.57 C 124.71,148.2 128.13,149.5 132.61,149.5 L 138.62,149.5 C 134.14,149.5 130.72,148.2 128.38,145.57 z M 130.42,45.91 L 124.41,45.91 L 119.74,65.79 L 125.65,66.22 L 130.42,45.91"
       id="path20"
       style="fill:#0c481e" />
    <path
       d="M 91.15,132.4 C 93.5,126.36 94.66,114.49 94.66,96.79 C 94.66,80.9 93.51,69.97 91.18,63.98 C 88.84,57.95 85.35,54.69 80.66,54.28 C 80.3,54.25 79.95,54.23 79.6,54.23 C 75.26,54.23 71.92,56.77 69.59,61.86 C 67.07,67.4 65.8,78.9 65.8,96.3 C 65.8,113.11 67.04,125.05 69.54,132.05 C 71.89,138.72 75.41,142.03 80.04,142.03 C 80.25,142.03 80.45,142.02 80.66,142.01 C 85.29,141.71 88.78,138.51 91.15,132.4 M 109.13,136.15 C 105.01,145.86 98.73,152.21 90.14,155.15 C 91.01,159.6 92.32,162.6 94.06,164.17 C 95.41,165.39 97.49,165.99 100.28,165.99 C 101.09,165.99 101.96,165.94 102.87,165.84 L 102.87,178.96 L 96.91,179.75 C 95.16,179.97 93.49,180.09 91.91,180.09 C 86.69,180.09 82.47,178.82 79.29,176.26 C 75.08,172.89 71.98,166.37 69.99,156.73 C 60.86,154.78 53.73,148.97 48.8,139.23 C 43.8,129.32 41.25,114.83 41.25,95.89 C 41.25,75.46 44.74,60.38 51.6,50.81 C 57.38,42.75 65.46,38.78 75.62,38.78 C 77.24,38.78 78.93,38.88 80.66,39.08 C 92.61,40.46 101.28,46.1 106.92,55.87 C 112.46,65.43 115.17,79.14 115.17,97.13 C 115.17,113.62 113.17,126.58 109.13,136.15"
       id="path22"
       style="fill:#ffffff" />
    <path
       d="M 100.28,165.99 C 101.09,165.99 101.95,165.94 102.87,165.84 L 98.04,165.84 C 98.71,165.94 99.49,165.99 100.28,165.99"
       id="path24"
       style="fill:#0c481e" />
    <path
       d="M 84.85,63.98 C 87.19,69.97 88.34,80.9 88.34,96.79 C 88.34,114.49 87.18,126.36 84.82,132.4 C 82.93,137.28 80.3,140.31 76.96,141.48 C 77.93,141.84 78.96,142.03 80.04,142.03 C 80.25,142.03 80.45,142.02 80.66,142.01 C 85.29,141.71 88.78,138.51 91.15,132.4 C 93.5,126.36 94.66,114.49 94.66,96.79 C 94.66,80.9 93.51,69.97 91.18,63.98 C 88.84,57.95 85.35,54.69 80.66,54.28 C 80.3,54.25 79.95,54.23 79.6,54.23 C 78.51,54.23 77.48,54.39 76.52,54.72 L 76.52,54.72 C 80.12,55.83 82.89,58.93 84.85,63.98 z M 82.51,178.25 C 82.4,178.2 82.28,178.15 82.17,178.09 C 82.16,178.09 82.15,178.08 82.14,178.08 C 82.03,178.03 81.93,177.97 81.83,177.92 C 81.81,177.91 81.79,177.9 81.77,177.89 C 81.68,177.84 81.59,177.79 81.49,177.74 C 81.46,177.72 81.44,177.71 81.41,177.69 C 81.33,177.65 81.24,177.6 81.16,177.55 C 81.12,177.53 81.09,177.51 81.05,177.48 C 80.98,177.44 80.91,177.4 80.84,177.36 C 80.79,177.33 80.74,177.3 80.7,177.27 C 80.64,177.23 80.58,177.19 80.52,177.15 C 80.46,177.12 80.41,177.08 80.35,177.04 C 80.3,177.01 80.25,176.98 80.2,176.94 C 80.14,176.9 80.07,176.85 80.01,176.81 C 79.97,176.78 79.93,176.75 79.89,176.72 C 79.82,176.67 79.74,176.61 79.67,176.55 C 79.64,176.54 79.61,176.52 79.59,176.5 C 79.49,176.42 79.39,176.34 79.29,176.26 C 75.08,172.89 71.98,166.37 69.99,156.73 C 60.86,154.78 53.73,148.97 48.8,139.23 C 43.8,129.32 41.25,114.83 41.25,95.89 C 41.25,75.46 44.74,60.38 51.6,50.81 C 57.38,42.75 65.46,38.78 75.62,38.78 C 75.65,38.78 69.27,38.77 69.27,38.77 L 69.27,38.78 C 59.12,38.78 51.05,42.75 45.27,50.81 C 38.41,60.38 34.92,75.46 34.92,95.89 C 34.92,114.83 37.47,129.32 42.47,139.23 C 47.41,148.97 54.53,154.78 63.67,156.73 C 65.65,166.37 68.76,172.89 72.96,176.26 C 76.14,178.82 80.36,180.09 85.58,180.09 C 85.68,180.09 85.78,180.09 85.88,180.09 L 91.42,180.09 C 88.01,180.03 85.04,179.43 82.52,178.26 C 82.51,178.26 82.51,178.26 82.51,178.25"
       id="path26"
       style="fill:#0c481e" />
  </g>
</svg>
